<svg xmlns="http://www.w3.org/2000/svg" xmlns:xlink="http://www.w3.org/1999/xlink" width="326" zoomAndPan="magnify" viewBox="0 0 244.5 80.249996" height="107" preserveAspectRatio="xMidYMid meet" version="1.0"><defs><g/><clipPath id="5b78b55f00"><path d="M 5 2 L 232.71875 2 L 232.71875 76 L 5 76 Z M 5 2 " clip-rule="nonzero"/></clipPath><clipPath id="202419724a"><path d="M 0.882812 73 L 7 73 L 7 79.507812 L 0.882812 79.507812 Z M 0.882812 73 " clip-rule="nonzero"/></clipPath><clipPath id="82ff1e36bd"><path d="M 38.484375 38.863281 L 41.792969 38.863281 L 41.792969 42.921875 L 38.484375 42.921875 Z M 38.484375 38.863281 " clip-rule="nonzero"/></clipPath><clipPath id="d664017a51"><path d="M 38.894531 40.554688 L 42.203125 40.554688 L 42.203125 44.613281 L 38.894531 44.613281 Z M 38.894531 40.554688 " clip-rule="nonzero"/></clipPath><clipPath id="b85367222d"><path d="M 38.894531 39.523438 L 42.203125 39.523438 L 42.203125 43.582031 L 38.894531 43.582031 Z M 38.894531 39.523438 " clip-rule="nonzero"/></clipPath><clipPath id="b9c2fa0490"><path d="M 49.597656 13 L 54.183594 13 L 54.183594 16.988281 L 49.597656 16.988281 Z M 49.597656 13 " clip-rule="nonzero"/></clipPath><clipPath id="3416facd7b"><path d="M 24.039062 17.898438 L 31.515625 17.898438 L 31.515625 21.886719 L 24.039062 21.886719 Z M 24.039062 17.898438 " clip-rule="nonzero"/></clipPath><clipPath id="10350d5511"><path d="M 27 17 L 43 17 L 43 43 L 27 43 Z M 27 17 " clip-rule="nonzero"/></clipPath><clipPath id="9eff76f191"><path d="M 31.394531 17.898438 L 42.148438 41.257812 L 38.523438 42.925781 L 27.769531 19.566406 Z M 31.394531 17.898438 " clip-rule="nonzero"/></clipPath><clipPath id="0b64babeee"><path d="M 38 12 L 54 12 L 54 43 L 38 43 Z M 38 12 " clip-rule="nonzero"/></clipPath><clipPath id="0defe0563d"><path d="M 53.328125 14.5 L 41.808594 42.796875 L 38.117188 41.296875 L 49.632812 12.996094 Z M 53.328125 14.5 " clip-rule="nonzero"/></clipPath><clipPath id="d4a1880b9d"><path d="M 53.335938 10.996094 L 61.328125 10.996094 L 61.328125 18.988281 L 53.335938 18.988281 Z M 53.335938 10.996094 " clip-rule="nonzero"/></clipPath><clipPath id="460d7f2e55"><path d="M 61.328125 14.992188 L 57.332031 10.996094 L 57.332031 12.996094 L 53.335938 12.996094 L 53.335938 16.992188 L 57.332031 16.992188 L 57.332031 18.988281 Z M 61.328125 14.992188 " clip-rule="nonzero"/></clipPath><clipPath id="8de6085c66"><path d="M 28 19 L 43 19 L 43 45 L 28 45 Z M 28 19 " clip-rule="nonzero"/></clipPath><clipPath id="08798f12f1"><path d="M 31.804688 19.589844 L 42.558594 42.945312 L 38.933594 44.613281 L 28.179688 21.257812 Z M 31.804688 19.589844 " clip-rule="nonzero"/></clipPath><clipPath id="2f73edd96a"><path d="M 38 14 L 54 14 L 54 45 L 38 45 Z M 38 14 " clip-rule="nonzero"/></clipPath><clipPath id="21c286e479"><path d="M 53.738281 16.191406 L 42.21875 44.488281 L 38.527344 42.984375 L 50.042969 14.6875 Z M 53.738281 16.191406 " clip-rule="nonzero"/></clipPath><clipPath id="990bf26c6f"><path d="M 28 18 L 43 18 L 43 44 L 28 44 Z M 28 18 " clip-rule="nonzero"/></clipPath><clipPath id="fe12105621"><path d="M 31.804688 18.558594 L 42.558594 41.914062 L 38.933594 43.582031 L 28.179688 20.226562 Z M 31.804688 18.558594 " clip-rule="nonzero"/></clipPath><clipPath id="971cf240c9"><path d="M 38 13 L 54 13 L 54 44 L 38 44 Z M 38 13 " clip-rule="nonzero"/></clipPath><clipPath id="ffe8311f8f"><path d="M 53.738281 15.160156 L 42.21875 43.457031 L 38.527344 41.953125 L 50.042969 13.65625 Z M 53.738281 15.160156 " clip-rule="nonzero"/></clipPath><clipPath id="1d09a9c96d"><path d="M 38 40 L 43 40 L 43 44 L 38 44 Z M 38 40 " clip-rule="nonzero"/></clipPath><clipPath id="f935513d31"><path d="M 39.578125 44.914062 L 37.957031 42.132812 L 40.386719 40.71875 L 42.007812 43.5 Z M 39.578125 44.914062 " clip-rule="nonzero"/></clipPath><clipPath id="9e3ae2e7a3"><path d="M 38.769531 43.527344 L 40.390625 40.722656 L 42.007812 43.5 Z M 38.769531 43.527344 " clip-rule="nonzero"/></clipPath></defs><g clip-path="url(#5b78b55f00)"><path fill="#bf9bf2" d="M 5.824219 75.652344 L 5.199219 74.890625 L 21.984375 61.042969 C 25.175781 58.410156 29.210938 56.960938 33.34375 56.960938 L 223.984375 56.960938 C 225.5 56.960938 226.949219 56.363281 228.019531 55.292969 L 230.046875 53.265625 C 231.117188 52.195312 231.714844 50.746094 231.714844 49.230469 L 231.714844 11.058594 C 231.714844 9.542969 231.117188 8.09375 230.046875 7.023438 L 228.019531 4.996094 C 226.949219 3.925781 225.5 3.328125 223.984375 3.328125 L 153.808594 3.328125 L 153.808594 2.34375 L 224.386719 2.34375 C 225.902344 2.34375 227.351562 2.941406 228.421875 4.015625 L 231.023438 6.613281 C 232.09375 7.683594 232.691406 9.132812 232.691406 10.648438 L 232.691406 49.636719 C 232.691406 51.148438 232.09375 52.597656 231.023438 53.667969 L 228.421875 56.269531 C 227.351562 57.339844 225.902344 57.9375 224.386719 57.9375 L 33.335938 57.9375 C 29.429688 57.9375 25.621094 59.304688 22.601562 61.796875 Z M 5.824219 75.652344 " fill-opacity="1" fill-rule="nonzero"/></g><g clip-path="url(#202419724a)"><path fill="#bf9bf2" d="M 6.566406 76.519531 C 6.566406 76.898438 6.496094 77.257812 6.351562 77.609375 C 6.207031 77.957031 6 78.261719 5.734375 78.53125 C 5.46875 78.796875 5.160156 79 4.8125 79.144531 C 4.464844 79.289062 4.101562 79.363281 3.726562 79.363281 C 3.347656 79.363281 2.984375 79.289062 2.636719 79.144531 C 2.289062 79 1.980469 78.796875 1.714844 78.53125 C 1.449219 78.261719 1.242188 77.957031 1.097656 77.609375 C 0.953125 77.257812 0.882812 76.898438 0.882812 76.519531 C 0.882812 76.144531 0.953125 75.78125 1.097656 75.433594 C 1.242188 75.085938 1.449219 74.777344 1.714844 74.511719 C 1.980469 74.242188 2.289062 74.039062 2.636719 73.894531 C 2.984375 73.75 3.347656 73.679688 3.726562 73.679688 C 4.101562 73.679688 4.464844 73.75 4.8125 73.894531 C 5.160156 74.039062 5.46875 74.242188 5.734375 74.511719 C 6 74.777344 6.207031 75.085938 6.351562 75.433594 C 6.496094 75.78125 6.566406 76.144531 6.566406 76.519531 Z M 6.566406 76.519531 " fill-opacity="1" fill-rule="nonzero"/></g><path fill="#bf9bf2" d="M 154.421875 2.835938 C 154.421875 3.210938 154.347656 3.574219 154.203125 3.921875 C 154.058594 4.269531 153.855469 4.578125 153.589844 4.84375 C 153.320312 5.113281 153.015625 5.316406 152.667969 5.460938 C 152.320312 5.605469 151.957031 5.675781 151.578125 5.675781 C 151.203125 5.675781 150.839844 5.605469 150.492188 5.460938 C 150.144531 5.316406 149.835938 5.113281 149.570312 4.84375 C 149.304688 4.578125 149.097656 4.269531 148.953125 3.921875 C 148.808594 3.574219 148.738281 3.210938 148.738281 2.835938 C 148.738281 2.457031 148.808594 2.097656 148.953125 1.746094 C 149.097656 1.398438 149.304688 1.09375 149.570312 0.824219 C 149.835938 0.558594 150.144531 0.355469 150.492188 0.210938 C 150.839844 0.0664062 151.203125 -0.0078125 151.578125 -0.0078125 C 151.957031 -0.0078125 152.320312 0.0664062 152.667969 0.210938 C 153.015625 0.355469 153.320312 0.558594 153.589844 0.824219 C 153.855469 1.09375 154.058594 1.398438 154.203125 1.746094 C 154.347656 2.097656 154.421875 2.457031 154.421875 2.835938 Z M 154.421875 2.835938 " fill-opacity="1" fill-rule="nonzero"/><path fill="#bf9bf2" d="M 95.660156 57.445312 L 100.078125 61.863281 C 101.242188 63.03125 102.820312 63.683594 104.464844 63.683594 L 175.992188 63.683594 C 177.257812 63.683594 178.476562 63.179688 179.375 62.28125 L 184.304688 57.351562 Z M 95.660156 57.445312 " fill-opacity="1" fill-rule="nonzero"/><path fill="#bf9bf2" d="M 194.707031 57.347656 L 188.527344 63.527344 C 188.429688 63.621094 188.296875 63.675781 188.160156 63.675781 L 183.339844 63.675781 C 182.882812 63.675781 182.660156 63.125 182.976562 62.800781 L 188.4375 57.339844 L 194.707031 57.339844 Z M 194.707031 57.347656 " fill-opacity="1" fill-rule="nonzero"/><path fill="#bf9bf2" d="M 204.832031 57.347656 L 198.648438 63.527344 C 198.554688 63.621094 198.417969 63.675781 198.285156 63.675781 L 193.460938 63.675781 C 193.003906 63.675781 192.777344 63.125 193.097656 62.800781 L 198.558594 57.339844 L 204.832031 57.339844 Z M 204.832031 57.347656 " fill-opacity="1" fill-rule="nonzero"/><path fill="#bf9bf2" d="M 214.945312 57.347656 L 208.761719 63.527344 C 208.667969 63.621094 208.535156 63.675781 208.398438 63.675781 L 203.578125 63.675781 C 203.121094 63.675781 202.890625 63.125 203.214844 62.800781 L 208.675781 57.339844 L 214.945312 57.339844 Z M 214.945312 57.347656 " fill-opacity="1" fill-rule="nonzero"/><g fill="#ffffff" fill-opacity="1"><g transform="translate(53.801402, 43.002595)"><g><path d="M 5.640625 -18.78125 L 5.640625 -22.640625 L 1.59375 -22.640625 L 1.59375 -18.78125 Z M 5.640625 0 L 5.640625 -16.234375 L 1.59375 -16.234375 L 1.59375 0 Z M 5.640625 0 "/></g></g></g><g fill="#ffffff" fill-opacity="1"><g transform="translate(61.03459, 43.002595)"><g><path d="M 13.78125 0 L 17.828125 0 L 17.828125 -13.171875 C 17.828125 -16.03125 15.859375 -16.234375 13.75 -16.234375 L 1.59375 -16.234375 L 1.59375 0 L 5.640625 0 L 5.640625 -12.390625 L 12.296875 -12.390625 C 13.203125 -12.390625 13.78125 -12.359375 13.78125 -11.40625 Z M 13.78125 0 "/></g></g></g><g fill="#ffffff" fill-opacity="1"><g transform="translate(80.28914, 43.002595)"><g><path d="M 13.78125 0 L 17.828125 0 L 17.828125 -13.171875 C 17.828125 -16.03125 15.859375 -16.234375 13.75 -16.234375 L 1.59375 -16.234375 L 1.59375 0 L 5.640625 0 L 5.640625 -12.390625 L 12.296875 -12.390625 C 13.203125 -12.390625 13.78125 -12.359375 13.78125 -11.40625 Z M 13.78125 0 "/></g></g></g><g fill="#ffffff" fill-opacity="1"><g transform="translate(99.543691, 43.002595)"><g><path d="M 17.65625 -13.171875 C 17.65625 -16.03125 15.6875 -16.234375 13.578125 -16.234375 L 5.5 -16.234375 C 3.390625 -16.234375 1.421875 -16.03125 1.421875 -13.171875 L 1.421875 -3.0625 C 1.421875 -0.203125 3.390625 0 5.5 0 L 13.578125 0 C 15.6875 0 17.65625 -0.203125 17.65625 -3.0625 Z M 5.46875 -11.40625 C 5.46875 -12.359375 6.046875 -12.390625 6.953125 -12.390625 L 12.125 -12.390625 C 13.03125 -12.390625 13.609375 -12.359375 13.609375 -11.40625 L 13.609375 -4.828125 C 13.609375 -3.875 13.03125 -3.84375 12.125 -3.84375 L 6.953125 -3.84375 C 6.046875 -3.84375 5.46875 -3.875 5.46875 -4.828125 Z M 5.46875 -11.40625 "/></g></g></g><g fill="#ffffff" fill-opacity="1"><g transform="translate(118.628434, 43.002595)"><g><path d="M 16.734375 -16.234375 L 12.5625 -16.234375 L 8.625 -5.609375 L 4.6875 -16.234375 L 0.34375 -16.234375 L 6.546875 0 L 10.5625 0 Z M 16.734375 -16.234375 "/></g></g></g><g fill="#ffffff" fill-opacity="1"><g transform="translate(135.709632, 43.002595)"><g><path d="M 5.46875 -5.234375 C 5.46875 -6.171875 6.046875 -6.21875 6.953125 -6.21875 L 13.578125 -6.21875 L 13.578125 -3.84375 L 6.953125 -3.84375 C 6.046875 -3.84375 5.46875 -3.875 5.46875 -4.828125 Z M 17.65625 -13.171875 C 17.65625 -16.03125 15.6875 -16.234375 13.578125 -16.234375 L 1.421875 -16.234375 L 1.421875 -12.390625 L 12.09375 -12.390625 C 13 -12.390625 13.578125 -12.359375 13.578125 -11.40625 L 13.578125 -10.046875 L 5.5 -10.046875 C 3.390625 -10.046875 1.421875 -9.84375 1.421875 -7 L 1.421875 -3.0625 C 1.421875 -0.203125 3.390625 0 5.5 0 L 17.65625 0 Z M 17.65625 -13.171875 "/></g></g></g><g fill="#ffffff" fill-opacity="1"><g transform="translate(154.794376, 43.002595)"><g><path d="M 9.703125 -12.390625 L 9.703125 -16.234375 L 5.640625 -16.234375 L 5.640625 -18.78125 L 1.59375 -18.78125 L 1.59375 0 L 5.640625 0 L 5.640625 -12.390625 Z M 9.703125 -12.390625 "/></g></g></g><g fill="#ffffff" fill-opacity="1"><g transform="translate(165.185711, 43.002595)"><g><path d="M 1.421875 -3.0625 C 1.421875 -0.203125 3.390625 0 5.5 0 L 17.65625 0 L 17.65625 -3.84375 L 6.953125 -3.84375 C 6.046875 -3.84375 5.46875 -3.875 5.46875 -4.828125 L 5.46875 -6.21875 L 17.65625 -6.21875 L 17.65625 -13.171875 C 17.65625 -16.03125 15.6875 -16.234375 13.578125 -16.234375 L 5.5 -16.234375 C 3.390625 -16.234375 1.421875 -16.03125 1.421875 -13.171875 Z M 5.46875 -11.40625 C 5.46875 -12.359375 6.046875 -12.390625 6.953125 -12.390625 L 12.125 -12.390625 C 13.03125 -12.390625 13.609375 -12.359375 13.609375 -11.40625 L 13.609375 -10.046875 L 5.46875 -10.046875 Z M 5.46875 -11.40625 "/></g></g></g><g clip-path="url(#82ff1e36bd)"><path fill="#ffffff" d="M 38.484375 38.863281 L 41.792969 38.863281 L 41.792969 42.917969 L 38.484375 42.917969 Z M 38.484375 38.863281 " fill-opacity="1" fill-rule="nonzero"/></g><g clip-path="url(#d664017a51)"><path fill="#ffffff" d="M 38.894531 40.554688 L 42.203125 40.554688 L 42.203125 44.609375 L 38.894531 44.609375 Z M 38.894531 40.554688 " fill-opacity="1" fill-rule="nonzero"/></g><g clip-path="url(#b85367222d)"><path fill="#ffffff" d="M 38.894531 39.523438 L 42.203125 39.523438 L 42.203125 43.578125 L 38.894531 43.578125 Z M 38.894531 39.523438 " fill-opacity="1" fill-rule="nonzero"/></g><g clip-path="url(#b9c2fa0490)"><path fill="#ffffff" d="M 49.597656 13 L 54.179688 13 L 54.179688 16.988281 L 49.597656 16.988281 Z M 49.597656 13 " fill-opacity="1" fill-rule="nonzero"/></g><g clip-path="url(#3416facd7b)"><path fill="#ffffff" d="M 24.039062 17.898438 L 31.515625 17.898438 L 31.515625 21.886719 L 24.039062 21.886719 Z M 24.039062 17.898438 " fill-opacity="1" fill-rule="nonzero"/></g><g clip-path="url(#10350d5511)"><g clip-path="url(#9eff76f191)"><path fill="#ffffff" d="M 31.394531 17.898438 L 42.148438 41.261719 L 38.527344 42.929688 L 27.769531 19.566406 Z M 31.394531 17.898438 " fill-opacity="1" fill-rule="nonzero"/></g></g><g clip-path="url(#0b64babeee)"><g clip-path="url(#0defe0563d)"><path fill="#ffffff" d="M 53.328125 14.5 L 41.8125 42.796875 L 38.117188 41.292969 L 49.632812 12.996094 Z M 53.328125 14.5 " fill-opacity="1" fill-rule="nonzero"/></g></g><g clip-path="url(#d4a1880b9d)"><g clip-path="url(#460d7f2e55)"><path fill="#ffffff" d="M 53.335938 10.996094 L 61.328125 10.996094 L 61.328125 18.988281 L 53.335938 18.988281 Z M 53.335938 10.996094 " fill-opacity="1" fill-rule="nonzero"/></g></g><g clip-path="url(#8de6085c66)"><g clip-path="url(#08798f12f1)"><path fill="#ffffff" d="M 31.804688 19.589844 L 42.558594 42.953125 L 38.9375 44.621094 L 28.179688 21.257812 Z M 31.804688 19.589844 " fill-opacity="1" fill-rule="nonzero"/></g></g><g clip-path="url(#2f73edd96a)"><g clip-path="url(#21c286e479)"><path fill="#ffffff" d="M 53.738281 16.191406 L 42.222656 44.484375 L 38.527344 42.980469 L 50.042969 14.6875 Z M 53.738281 16.191406 " fill-opacity="1" fill-rule="nonzero"/></g></g><g clip-path="url(#990bf26c6f)"><g clip-path="url(#fe12105621)"><path fill="#ffffff" d="M 31.804688 18.558594 L 42.558594 41.921875 L 38.9375 43.589844 L 28.179688 20.226562 Z M 31.804688 18.558594 " fill-opacity="1" fill-rule="nonzero"/></g></g><g clip-path="url(#971cf240c9)"><g clip-path="url(#ffe8311f8f)"><path fill="#ffffff" d="M 53.738281 15.160156 L 42.222656 43.457031 L 38.527344 41.953125 L 50.042969 13.65625 Z M 53.738281 15.160156 " fill-opacity="1" fill-rule="nonzero"/></g></g><g clip-path="url(#1d09a9c96d)"><g clip-path="url(#f935513d31)"><g clip-path="url(#9e3ae2e7a3)"><path fill="#ffffff" d="M 39.578125 44.914062 L 37.957031 42.132812 L 40.386719 40.71875 L 42.007812 43.5 Z M 39.578125 44.914062 " fill-opacity="1" fill-rule="nonzero"/></g></g></g><g fill="#ffffff" fill-opacity="1"><g transform="translate(185.131856, 43.933938)"><g><path d="M 7.40625 0 L 1.828125 0 L 1.828125 -20.671875 L 7.40625 -20.671875 Z M 7.40625 0 "/></g></g></g><g fill="#ffffff" fill-opacity="1"><g transform="translate(194.361082, 43.933938)"><g><path d="M 17.953125 -16.328125 L 11.984375 -16.328125 L 11.984375 0 L 6.359375 0 L 6.359375 -16.328125 L 0.421875 -16.328125 L 0.421875 -20.671875 L 17.953125 -20.671875 Z M 17.953125 -16.328125 "/></g></g></g></svg>